<svg width="480" height="68" viewBox="0 0 480 68" fill="none" xmlns="http://www.w3.org/2000/svg">
<g filter="url(#filter0_d)">
<path d="M8 10C8 7.79086 9.79086 6 12 6H468C470.209 6 472 7.79086 472 10V54C472 56.2091 470.209 58 468 58H12C9.79086 58 8 56.2091 8 54V10Z" fill="white"/>
<path d="M55.024 29.696H58.032V31.136H55.024V34.16L53.584 34.176V31.136H50.544V29.696H53.584V26.672H55.024V29.696ZM62.9781 23.968C64.3541 23.968 65.3995 24.496 66.1141 25.552C66.8395 26.5973 67.2021 27.9893 67.2021 29.728C67.2021 30.6027 67.1115 31.4187 66.9301 32.176C66.7488 32.9333 66.4715 33.616 66.0981 34.224C65.7248 34.832 65.2235 35.312 64.5941 35.664C63.9755 36.016 63.2555 36.192 62.4341 36.192C61.1755 36.192 60.1515 35.8613 59.3621 35.2L59.9701 33.968C60.7168 34.5227 61.5221 34.8 62.3861 34.8C63.4955 34.8 64.3275 34.3413 64.8821 33.424C65.4368 32.496 65.7141 31.36 65.7141 30.016C65.4475 30.5387 65.0368 30.96 64.4821 31.28C63.9381 31.6 63.3248 31.76 62.6421 31.76C61.5755 31.76 60.6901 31.3973 59.9861 30.672C59.2821 29.9573 58.9301 29.0453 58.9301 27.936C58.9301 26.7947 59.3088 25.8453 60.0661 25.088C60.8128 24.3413 61.7835 23.968 62.9781 23.968ZM65.3781 27.92C65.3781 27.216 65.1435 26.6133 64.6741 26.112C64.2155 25.6213 63.6395 25.376 62.9461 25.376C62.2315 25.376 61.6448 25.6213 61.1861 26.112C60.7168 26.6027 60.4821 27.2107 60.4821 27.936C60.4821 28.6507 60.7115 29.2373 61.1701 29.696C61.6288 30.1547 62.2101 30.384 62.9141 30.384C63.6075 30.384 64.1888 30.1493 64.6581 29.68C65.1381 29.2213 65.3781 28.6347 65.3781 27.92ZM67.799 26.992L71.143 24.176H72.407V36H70.823V26.304L68.679 28.096L67.799 26.992Z" fill="black"/>
<rect x="376" y="10" width="92" height="44" rx="2" fill="#212121"/>
<path d="M410.712 35.144C410.032 35.144 409.404 35 408.828 34.712C408.252 34.416 407.788 33.996 407.436 33.452L408.42 32.324C408.988 33.18 409.756 33.608 410.724 33.608C411.124 33.608 411.448 33.512 411.696 33.32C411.952 33.12 412.08 32.872 412.08 32.576C412.08 32.176 411.804 31.84 411.252 31.568C411.116 31.504 410.824 31.384 410.376 31.208C409.928 31.024 409.58 30.86 409.332 30.716C408.404 30.172 407.94 29.444 407.94 28.532C407.94 27.804 408.212 27.2 408.756 26.72C409.292 26.232 410 25.988 410.88 25.988C412.032 25.988 412.98 26.396 413.724 27.212L412.812 28.388C412.572 28.116 412.276 27.904 411.924 27.752C411.58 27.6 411.24 27.524 410.904 27.524C410.544 27.524 410.252 27.612 410.028 27.788C409.812 27.956 409.704 28.18 409.704 28.46C409.704 28.836 409.948 29.148 410.436 29.396L411.372 29.828C411.748 29.98 412.1 30.14 412.428 30.308C413.404 30.804 413.892 31.528 413.892 32.48C413.892 33.264 413.596 33.904 413.004 34.4C412.412 34.896 411.648 35.144 410.712 35.144ZM421.149 31.604C421.149 31.812 421.133 32.044 421.101 32.3H416.133C416.237 32.764 416.457 33.132 416.793 33.404C417.137 33.668 417.581 33.8 418.125 33.8C418.917 33.8 419.633 33.576 420.273 33.128L420.897 34.244C420.089 34.844 419.145 35.144 418.065 35.144C417.473 35.144 416.945 35.048 416.481 34.856C416.025 34.664 415.657 34.408 415.377 34.088C415.097 33.76 414.885 33.4 414.741 33.008C414.605 32.608 414.537 32.184 414.537 31.736C414.537 30.744 414.849 29.932 415.473 29.3C416.105 28.652 416.921 28.328 417.921 28.328C418.857 28.328 419.629 28.624 420.237 29.216C420.845 29.8 421.149 30.596 421.149 31.604ZM417.921 29.636C417.465 29.636 417.077 29.768 416.757 30.032C416.445 30.296 416.237 30.656 416.133 31.112H419.613C419.549 30.656 419.361 30.296 419.049 30.032C418.745 29.768 418.369 29.636 417.921 29.636ZM423.681 35H422.121V28.484H423.657V29.396C423.833 29.06 424.101 28.796 424.461 28.604C424.821 28.412 425.237 28.316 425.709 28.316C426.421 28.316 427.025 28.552 427.521 29.024C428.017 29.496 428.265 30.164 428.265 31.028V35H426.693V31.46C426.693 30.924 426.565 30.504 426.309 30.2C426.053 29.896 425.705 29.744 425.265 29.744C424.801 29.744 424.421 29.908 424.125 30.236C423.829 30.556 423.681 30.972 423.681 31.484V35ZM434.454 29.312V25.88H436.014V35H434.49V34.148C433.946 34.82 433.254 35.156 432.414 35.156C431.478 35.156 430.706 34.832 430.098 34.184C429.482 33.52 429.174 32.704 429.174 31.736C429.174 30.784 429.482 29.976 430.098 29.312C430.722 28.656 431.49 28.328 432.402 28.328C433.234 28.328 433.918 28.656 434.454 29.312ZM432.63 33.728C433.198 33.728 433.658 33.536 434.01 33.152C434.362 32.76 434.538 32.288 434.538 31.736C434.538 31.184 434.358 30.716 433.998 30.332C433.654 29.948 433.198 29.756 432.63 29.756C432.062 29.756 431.606 29.948 431.262 30.332C430.91 30.724 430.734 31.192 430.734 31.736C430.734 32.288 430.91 32.76 431.262 33.152C431.606 33.536 432.062 33.728 432.63 33.728Z" fill="white"/>
<path d="M100 16V47.5" stroke="#E9E9E9" stroke-linecap="round"/>
<path d="M84 33L80.5359 28.5L87.4641 28.5L84 33Z" fill="#212121"/>
<g clip-path="url(#clip0)">
<path d="M19 35.9999C19 36.7072 19.281 37.3854 19.781 37.8855C20.2811 38.3856 20.9594 38.6666 21.6667 38.6666H40.3333C41.0406 38.6666 41.7189 38.3856 42.219 37.8855C42.719 37.3854 43 36.7072 43 35.9999V33.3333H19V35.9999Z" fill="#138808"/>
<path d="M19 26.6667H43V33.3334H19V26.6667Z" fill="#EEEEEE"/>
<path d="M43 26.6666V23.9999C43 23.2927 42.719 22.6144 42.219 22.1143C41.7189 21.6142 41.0406 21.3333 40.3333 21.3333H21.6667C20.9594 21.3333 20.2811 21.6142 19.781 22.1143C19.281 22.6144 19 23.2927 19 23.9999V26.6666H43Z" fill="#FF9933"/>
<path d="M31.0007 32.6666C32.4734 32.6666 33.6673 31.4727 33.6673 29.9999C33.6673 28.5272 32.4734 27.3333 31.0007 27.3333C29.5279 27.3333 28.334 28.5272 28.334 29.9999C28.334 31.4727 29.5279 32.6666 31.0007 32.6666Z" fill="#000080"/>
<path d="M31 32C32.1046 32 33 31.1046 33 30C33 28.8954 32.1046 28 31 28C29.8954 28 29 28.8954 29 30C29 31.1046 29.8954 32 31 32Z" fill="#EEEEEE"/>
<path d="M31 28L31.0973 29.5093L31.7647 28.1527L31.278 29.584L32.414 28.5853L31.416 29.722L32.8473 29.2347L31.4907 29.9027L33 30L31.4907 30.0973L32.8473 30.7647L31.416 30.278L32.414 31.414L31.278 30.416L31.7647 31.8473L31.0973 30.4907L31 32L30.9027 30.4907L30.2347 31.8473L30.722 30.416L29.5853 31.414L30.584 30.278L29.1527 30.7647L30.5093 30.0973L29 30L30.5093 29.9027L29.1527 29.2347L30.584 29.722L29.5853 28.5853L30.722 29.584L30.2347 28.1527L30.9027 29.5093L31 28Z" fill="#6666B3"/>
<path d="M31.0007 30.6666C31.3688 30.6666 31.6673 30.3681 31.6673 29.9999C31.6673 29.6317 31.3688 29.3333 31.0007 29.3333C30.6325 29.3333 30.334 29.6317 30.334 29.9999C30.334 30.3681 30.6325 30.6666 31.0007 30.6666Z" fill="#000080"/>
</g>
<path d="M119.742 36H113.302V25.654H119.742V26.984H114.702V30.078H119.364V31.408H114.702V34.67H119.742V36ZM122.911 36H121.567V28.496H122.883V29.56C123.359 28.72 124.153 28.3 125.263 28.3C126.103 28.3 126.808 28.5707 127.377 29.112C127.947 29.6533 128.231 30.4327 128.231 31.45V36H126.901V31.828C126.901 31.1093 126.724 30.5493 126.369 30.148C126.024 29.7467 125.562 29.546 124.983 29.546C124.377 29.546 123.877 29.7607 123.485 30.19C123.103 30.6287 122.911 31.1793 122.911 31.842V36ZM134.536 34.516L135.04 35.552C134.498 35.972 133.831 36.182 133.038 36.182C132.254 36.182 131.656 35.9393 131.246 35.454C130.844 34.9687 130.644 34.2733 130.644 33.368V29.644H129.314V28.496H130.658V25.836H131.974V28.496H134.634V29.644H131.974V33.466C131.974 34.4553 132.38 34.95 133.192 34.95C133.63 34.95 134.078 34.8053 134.536 34.516ZM142.977 32.108C142.977 32.2013 142.963 32.43 142.935 32.794H136.957C137.078 33.4567 137.358 33.9793 137.797 34.362C138.235 34.7447 138.833 34.936 139.589 34.936C140.037 34.936 140.499 34.8613 140.975 34.712C141.451 34.5533 141.861 34.348 142.207 34.096L142.781 35.118C142.389 35.4167 141.903 35.6687 141.325 35.874C140.746 36.07 140.158 36.168 139.561 36.168C138.879 36.168 138.273 36.056 137.741 35.832C137.218 35.608 136.803 35.3047 136.495 34.922C136.187 34.5393 135.953 34.1193 135.795 33.662C135.636 33.2047 135.557 32.724 135.557 32.22C135.557 31.1 135.907 30.1667 136.607 29.42C137.316 28.6827 138.231 28.314 139.351 28.314C140.415 28.314 141.283 28.6547 141.955 29.336C142.636 30.0173 142.977 30.9413 142.977 32.108ZM136.957 31.632H141.591C141.553 30.988 141.325 30.4747 140.905 30.092C140.494 29.7 139.976 29.504 139.351 29.504C138.744 29.504 138.221 29.7047 137.783 30.106C137.344 30.498 137.069 31.0067 136.957 31.632ZM145.907 36H144.563V28.496H145.837V29.602C146.276 28.734 146.995 28.3 147.993 28.3C148.264 28.3 148.558 28.3373 148.875 28.412L148.749 29.714C148.479 29.63 148.217 29.588 147.965 29.588C147.349 29.588 146.85 29.798 146.467 30.218C146.094 30.638 145.907 31.24 145.907 32.024V36ZM154.398 36H153.054V28.496H154.37V29.56C154.846 28.72 155.639 28.3 156.75 28.3C157.59 28.3 158.294 28.5707 158.864 29.112C159.433 29.6533 159.718 30.4327 159.718 31.45V36H158.388V31.828C158.388 31.1093 158.21 30.5493 157.856 30.148C157.51 29.7467 157.048 29.546 156.47 29.546C155.863 29.546 155.364 29.7607 154.972 30.19C154.589 30.6287 154.398 31.1793 154.398 31.842V36ZM164.83 36.182C163.85 36.182 163.066 35.8927 162.478 35.314C161.899 34.7353 161.61 33.956 161.61 32.976V28.496H162.954V32.934C162.954 33.55 163.117 34.04 163.444 34.404C163.78 34.7587 164.242 34.936 164.83 34.936C165.418 34.936 165.88 34.7587 166.216 34.404C166.552 34.04 166.72 33.55 166.72 32.934V28.496H168.05V32.976C168.05 33.9747 167.761 34.7587 167.182 35.328C166.613 35.8973 165.829 36.182 164.83 36.182ZM178.7 28.3C179.605 28.3 180.333 28.594 180.884 29.182C181.425 29.7513 181.696 30.5353 181.696 31.534V36H180.352V31.744C180.352 31.044 180.189 30.5027 179.862 30.12C179.545 29.7373 179.106 29.546 178.546 29.546C177.958 29.546 177.477 29.7513 177.104 30.162C176.731 30.5727 176.544 31.1093 176.544 31.772V36H175.214V31.772C175.214 31.072 175.051 30.526 174.724 30.134C174.397 29.742 173.954 29.546 173.394 29.546C172.806 29.546 172.321 29.756 171.938 30.176C171.565 30.5867 171.378 31.128 171.378 31.8V36H170.034V28.496H171.35V29.602C171.574 29.182 171.882 28.86 172.274 28.636C172.675 28.4027 173.123 28.2907 173.618 28.3C174.131 28.3 174.603 28.426 175.032 28.678C175.461 28.9207 175.774 29.2613 175.97 29.7C176.222 29.2707 176.591 28.93 177.076 28.678C177.571 28.426 178.112 28.3 178.7 28.3ZM187.655 28.314C188.719 28.314 189.606 28.6967 190.315 29.462C191.034 30.2273 191.393 31.156 191.393 32.248C191.393 33.34 191.034 34.2733 190.315 35.048C189.596 35.804 188.705 36.182 187.641 36.182C186.558 36.182 185.681 35.7573 185.009 34.908V36H183.665V25.402H185.009V29.63C185.69 28.7527 186.572 28.314 187.655 28.314ZM187.487 34.922C188.252 34.922 188.864 34.6653 189.321 34.152C189.797 33.6387 190.035 32.9993 190.035 32.234C190.035 31.4967 189.797 30.8667 189.321 30.344C188.864 29.8307 188.252 29.574 187.487 29.574C186.712 29.574 186.096 29.8307 185.639 30.344C185.182 30.8573 184.953 31.4873 184.953 32.234C184.953 32.9993 185.182 33.6387 185.639 34.152C186.096 34.6653 186.712 34.922 187.487 34.922ZM199.988 32.108C199.988 32.2013 199.974 32.43 199.946 32.794H193.968C194.09 33.4567 194.37 33.9793 194.808 34.362C195.247 34.7447 195.844 34.936 196.6 34.936C197.048 34.936 197.51 34.8613 197.986 34.712C198.462 34.5533 198.873 34.348 199.218 34.096L199.792 35.118C199.4 35.4167 198.915 35.6687 198.336 35.874C197.758 36.07 197.17 36.168 196.572 36.168C195.891 36.168 195.284 36.056 194.752 35.832C194.23 35.608 193.814 35.3047 193.506 34.922C193.198 34.5393 192.965 34.1193 192.806 33.662C192.648 33.2047 192.568 32.724 192.568 32.22C192.568 31.1 192.918 30.1667 193.618 29.42C194.328 28.6827 195.242 28.314 196.362 28.314C197.426 28.314 198.294 28.6547 198.966 29.336C199.648 30.0173 199.988 30.9413 199.988 32.108ZM193.968 31.632H198.602C198.565 30.988 198.336 30.4747 197.916 30.092C197.506 29.7 196.988 29.504 196.362 29.504C195.756 29.504 195.233 29.7047 194.794 30.106C194.356 30.498 194.08 31.0067 193.968 31.632ZM202.919 36H201.575V28.496H202.849V29.602C203.288 28.734 204.006 28.3 205.005 28.3C205.276 28.3 205.57 28.3373 205.887 28.412L205.761 29.714C205.49 29.63 205.229 29.588 204.977 29.588C204.361 29.588 203.862 29.798 203.479 30.218C203.106 30.638 202.919 31.24 202.919 32.024V36Z" fill="#A6A6A6"/>
</g>
<defs>
<filter id="filter0_d" x="0" y="0" width="480" height="68" filterUnits="userSpaceOnUse" color-interpolation-filters="sRGB">
<feFlood flood-opacity="0" result="BackgroundImageFix"/>
<feColorMatrix in="SourceAlpha" type="matrix" values="0 0 0 0 0 0 0 0 0 0 0 0 0 0 0 0 0 0 127 0" result="hardAlpha"/>
<feOffset dy="2"/>
<feGaussianBlur stdDeviation="4"/>
<feComposite in2="hardAlpha" operator="out"/>
<feColorMatrix type="matrix" values="0 0 0 0 0 0 0 0 0 0 0 0 0 0 0 0 0 0 0.25 0"/>
<feBlend mode="normal" in2="BackgroundImageFix" result="effect1_dropShadow"/>
<feBlend mode="normal" in="SourceGraphic" in2="effect1_dropShadow" result="shape"/>
</filter>
<clipPath id="clip0">
<rect width="24" height="24" fill="white" transform="translate(19 18)"/>
</clipPath>
</defs>
</svg>
