<svg width="22" height="20" viewBox="0 0 22 20" fill="none" xmlns="http://www.w3.org/2000/svg">
<path d="M20.3335 8.66643H4.52016L9.36016 2.8531C9.58648 2.58081 9.69536 2.22977 9.66286 1.8772C9.63035 1.52463 9.45912 1.19942 9.18683 0.973101C8.91454 0.746783 8.5635 0.6379 8.21093 0.670406C7.85836 0.702913 7.53315 0.874145 7.30683 1.14643L0.640163 9.14643C0.59531 9.21007 0.555202 9.27691 0.520163 9.34643C0.520163 9.4131 0.520163 9.4531 0.42683 9.51977C0.366394 9.67265 0.334751 9.83538 0.333496 9.99977C0.334751 10.1642 0.366394 10.3269 0.42683 10.4798C0.42683 10.5464 0.426829 10.5864 0.520163 10.6531C0.555202 10.7226 0.59531 10.7895 0.640163 10.8531L7.30683 18.8531C7.43219 19.0036 7.58918 19.1247 7.76662 19.2076C7.94407 19.2906 8.13761 19.3334 8.3335 19.3331C8.64503 19.3337 8.94695 19.2252 9.18683 19.0264C9.32184 18.9145 9.43344 18.777 9.51525 18.6219C9.59705 18.4668 9.64744 18.297 9.66354 18.1224C9.67965 17.9478 9.66114 17.7717 9.60908 17.6042C9.55702 17.4367 9.47243 17.2812 9.36016 17.1464L4.52016 11.3331H20.3335C20.6871 11.3331 21.0263 11.1926 21.2763 10.9426C21.5264 10.6925 21.6668 10.3534 21.6668 9.99977C21.6668 9.64615 21.5264 9.30701 21.2763 9.05696C21.0263 8.80691 20.6871 8.66643 20.3335 8.66643Z" fill="#757575"/>
</svg>
