<svg width="400" height="124" viewBox="0 0 400 124" fill="none" xmlns="http://www.w3.org/2000/svg">
<rect width="400" height="124" fill="#4279E9"/>
<path d="M55.1596 44.4616C55.1596 44.4616 47.4828 42.8008 40.1011 42.8008C32.7195 42.8008 25.0427 44.4616 25.0427 44.4616L22.457 47.6008V57.2008C22.457 73.8376 38.5308 80.7928 38.5308 80.7928H41.6699C41.6699 80.7928 57.7453 73.8376 57.7453 57.2008V47.6008L55.1596 44.4616ZM50.8592 55.132L38.7329 67.228C38.4314 67.5288 38.0239 67.6968 37.5989 67.6968C37.1738 67.6968 36.7648 67.5288 36.4649 67.228L30.9262 61.7032C30.299 61.0776 30.299 60.0664 30.9262 59.4408C31.5534 58.8152 32.5671 58.8152 33.1943 59.4408L37.5989 63.8344L48.5912 52.8696C49.2183 52.244 50.2321 52.244 50.8592 52.8696C51.4864 53.4952 51.4864 54.5064 50.8592 55.132Z" fill="white"/>
<path d="M74.086 42V31.074H70.252V28.698H80.404V31.074H76.57V42H74.086ZM89.7422 36.906C89.7422 37.218 89.7182 37.566 89.6702 37.95H82.2182C82.3742 38.646 82.7042 39.198 83.2082 39.606C83.7242 40.002 84.3902 40.2 85.2062 40.2C86.3942 40.2 87.4682 39.864 88.4282 39.192L89.3642 40.866C88.1522 41.766 86.7362 42.216 85.1162 42.216C84.2282 42.216 83.4362 42.072 82.7402 41.784C82.0562 41.496 81.5042 41.112 81.0842 40.632C80.6642 40.14 80.3462 39.6 80.1302 39.012C79.9262 38.412 79.8242 37.776 79.8242 37.104C79.8242 35.616 80.2922 34.398 81.2282 33.45C82.1762 32.478 83.4002 31.992 84.9002 31.992C86.3042 31.992 87.4622 32.436 88.3742 33.324C89.2862 34.2 89.7422 35.394 89.7422 36.906ZM84.9002 33.954C84.2162 33.954 83.6342 34.152 83.1542 34.548C82.6862 34.944 82.3742 35.484 82.2182 36.168H87.4382C87.3422 35.484 87.0602 34.944 86.5922 34.548C86.1362 34.152 85.5722 33.954 84.9002 33.954ZM96.205 42.216C94.705 42.216 93.463 41.736 92.479 40.776C91.519 39.816 91.039 38.592 91.039 37.104C91.039 35.616 91.525 34.392 92.497 33.432C93.481 32.472 94.741 31.992 96.277 31.992C97.285 31.992 98.191 32.232 98.995 32.712C99.811 33.18 100.417 33.834 100.813 34.674L98.905 35.7C98.281 34.668 97.417 34.152 96.313 34.152C95.473 34.152 94.771 34.434 94.207 34.998C93.655 35.55 93.379 36.252 93.379 37.104C93.379 37.944 93.649 38.646 94.189 39.21C94.729 39.774 95.413 40.056 96.241 40.056C96.781 40.056 97.291 39.918 97.771 39.642C98.263 39.354 98.629 38.982 98.869 38.526L100.777 39.642C100.345 40.434 99.721 41.064 98.905 41.532C98.101 41.988 97.201 42.216 96.205 42.216ZM104.729 42H102.389V28.32H104.675V33.486C104.963 33.03 105.383 32.664 105.935 32.388C106.487 32.112 107.099 31.974 107.771 31.974C108.815 31.974 109.709 32.328 110.453 33.036C111.197 33.744 111.569 34.746 111.569 36.042V42H109.229V36.672C109.229 35.868 109.037 35.244 108.653 34.8C108.269 34.344 107.747 34.116 107.087 34.116C106.391 34.116 105.821 34.356 105.377 34.836C104.945 35.316 104.729 35.94 104.729 36.708V42ZM116.173 42H113.833V32.226H116.137V33.594C116.401 33.09 116.803 32.694 117.343 32.406C117.883 32.118 118.507 31.974 119.215 31.974C120.283 31.974 121.189 32.328 121.933 33.036C122.677 33.744 123.049 34.746 123.049 36.042V42H120.691V36.69C120.691 35.886 120.499 35.256 120.115 34.8C119.731 34.344 119.209 34.116 118.549 34.116C117.853 34.116 117.283 34.362 116.839 34.854C116.395 35.334 116.173 35.958 116.173 36.726V42ZM126.535 31.056C126.103 31.056 125.743 30.918 125.455 30.642C125.167 30.366 125.023 30.012 125.023 29.58C125.023 29.16 125.167 28.812 125.455 28.536C125.755 28.248 126.115 28.104 126.535 28.104C126.955 28.104 127.303 28.248 127.579 28.536C127.867 28.812 128.011 29.16 128.011 29.58C128.011 30.012 127.867 30.366 127.579 30.642C127.303 30.918 126.955 31.056 126.535 31.056ZM127.687 32.226V42H125.329V32.226H127.687ZM134.666 42.216C133.166 42.216 131.924 41.736 130.94 40.776C129.98 39.816 129.5 38.592 129.5 37.104C129.5 35.616 129.986 34.392 130.958 33.432C131.942 32.472 133.202 31.992 134.738 31.992C135.746 31.992 136.652 32.232 137.456 32.712C138.272 33.18 138.878 33.834 139.274 34.674L137.366 35.7C136.742 34.668 135.878 34.152 134.774 34.152C133.934 34.152 133.232 34.434 132.668 34.998C132.116 35.55 131.84 36.252 131.84 37.104C131.84 37.944 132.11 38.646 132.65 39.21C133.19 39.774 133.874 40.056 134.702 40.056C135.242 40.056 135.752 39.918 136.232 39.642C136.724 39.354 137.09 38.982 137.33 38.526L139.238 39.642C138.806 40.434 138.182 41.064 137.366 41.532C136.562 41.988 135.662 42.216 134.666 42.216ZM142.092 31.056C141.66 31.056 141.3 30.918 141.012 30.642C140.724 30.366 140.58 30.012 140.58 29.58C140.58 29.16 140.724 28.812 141.012 28.536C141.312 28.248 141.672 28.104 142.092 28.104C142.512 28.104 142.86 28.248 143.136 28.536C143.424 28.812 143.568 29.16 143.568 29.58C143.568 30.012 143.424 30.366 143.136 30.642C142.86 30.918 142.512 31.056 142.092 31.056ZM143.244 32.226V42H140.886V32.226H143.244ZM153.085 33.468V32.226H155.317V42H153.085V40.794C152.233 41.754 151.171 42.234 149.899 42.234C148.495 42.234 147.337 41.742 146.425 40.758C145.513 39.774 145.057 38.544 145.057 37.068C145.057 35.592 145.513 34.38 146.425 33.432C147.349 32.472 148.507 31.992 149.899 31.992C151.147 31.992 152.209 32.484 153.085 33.468ZM153.139 37.104C153.139 36.276 152.869 35.574 152.329 34.998C151.789 34.422 151.099 34.134 150.259 34.134C149.419 34.134 148.729 34.422 148.189 34.998C147.661 35.586 147.397 36.288 147.397 37.104C147.397 37.932 147.661 38.64 148.189 39.228C148.729 39.804 149.419 40.092 150.259 40.092C151.099 40.092 151.789 39.804 152.329 39.228C152.869 38.652 153.139 37.944 153.139 37.104ZM160.048 42H157.708V32.226H160.012V33.594C160.276 33.09 160.678 32.694 161.218 32.406C161.758 32.118 162.382 31.974 163.09 31.974C164.158 31.974 165.064 32.328 165.808 33.036C166.552 33.744 166.924 34.746 166.924 36.042V42H164.566V36.69C164.566 35.886 164.374 35.256 163.99 34.8C163.606 34.344 163.084 34.116 162.424 34.116C161.728 34.116 161.158 34.362 160.714 34.854C160.27 35.334 160.048 35.958 160.048 36.726V42ZM179.614 39.588L180.352 41.424C179.584 41.964 178.642 42.234 177.526 42.234C175.294 42.234 174.178 40.962 174.178 38.418V34.206H172.558V32.226H174.214V28.77H176.536V32.226H179.812V34.206H176.536V38.328C176.536 39.504 177.01 40.092 177.958 40.092C178.51 40.092 179.062 39.924 179.614 39.588ZM183.936 42H181.596V32.226H183.846V33.576C184.446 32.508 185.352 31.974 186.564 31.974C186.972 31.974 187.362 32.04 187.734 32.172L187.536 34.422C187.116 34.29 186.738 34.224 186.402 34.224C185.646 34.224 185.046 34.482 184.602 34.998C184.158 35.502 183.936 36.246 183.936 37.23V42ZM196.186 33.468V32.226H198.418V42H196.186V40.794C195.334 41.754 194.272 42.234 193 42.234C191.596 42.234 190.438 41.742 189.526 40.758C188.614 39.774 188.158 38.544 188.158 37.068C188.158 35.592 188.614 34.38 189.526 33.432C190.45 32.472 191.608 31.992 193 31.992C194.248 31.992 195.31 32.484 196.186 33.468ZM196.24 37.104C196.24 36.276 195.97 35.574 195.43 34.998C194.89 34.422 194.2 34.134 193.36 34.134C192.52 34.134 191.83 34.422 191.29 34.998C190.762 35.586 190.498 36.288 190.498 37.104C190.498 37.932 190.762 38.64 191.29 39.228C191.83 39.804 192.52 40.092 193.36 40.092C194.2 40.092 194.89 39.804 195.43 39.228C195.97 38.652 196.24 37.944 196.24 37.104ZM204.949 38.778L207.487 32.226H210.061L205.795 41.982H204.031L199.783 32.226H202.375L204.949 38.778ZM220.313 36.906C220.313 37.218 220.289 37.566 220.241 37.95H212.789C212.945 38.646 213.275 39.198 213.779 39.606C214.295 40.002 214.961 40.2 215.777 40.2C216.965 40.2 218.039 39.864 218.999 39.192L219.935 40.866C218.723 41.766 217.307 42.216 215.687 42.216C214.799 42.216 214.007 42.072 213.311 41.784C212.627 41.496 212.075 41.112 211.655 40.632C211.235 40.14 210.917 39.6 210.701 39.012C210.497 38.412 210.395 37.776 210.395 37.104C210.395 35.616 210.863 34.398 211.799 33.45C212.747 32.478 213.971 31.992 215.471 31.992C216.875 31.992 218.033 32.436 218.945 33.324C219.857 34.2 220.313 35.394 220.313 36.906ZM215.471 33.954C214.787 33.954 214.205 34.152 213.725 34.548C213.257 34.944 212.945 35.484 212.789 36.168H218.009C217.913 35.484 217.631 34.944 217.163 34.548C216.707 34.152 216.143 33.954 215.471 33.954ZM224.471 28.32V42H222.131V28.32H224.471ZM240.739 39.084L242.683 40.812L241.387 42.252L239.425 40.488C238.177 41.616 236.791 42.18 235.267 42.18C233.959 42.18 232.879 41.808 232.027 41.064C231.187 40.308 230.767 39.378 230.767 38.274C230.767 36.678 231.559 35.406 233.143 34.458C232.627 33.69 232.369 32.85 232.369 31.938C232.369 31.014 232.717 30.21 233.413 29.526C234.109 28.83 234.997 28.482 236.077 28.482C236.977 28.482 237.757 28.764 238.417 29.328C239.065 29.892 239.389 30.582 239.389 31.398C239.389 32.322 239.029 33.06 238.309 33.612C237.913 33.924 237.583 34.158 237.319 34.314C237.079 34.458 236.671 34.674 236.095 34.962L236.851 35.646L239.299 37.806C239.659 37.386 240.109 36.774 240.649 35.97L242.125 37.176C241.741 37.764 241.279 38.4 240.739 39.084ZM235.987 30.246C235.519 30.246 235.135 30.414 234.835 30.75C234.535 31.074 234.385 31.482 234.385 31.974C234.385 32.538 234.541 33.066 234.853 33.558L235.609 33.198C235.849 33.078 236.059 32.964 236.239 32.856C236.503 32.688 236.695 32.55 236.815 32.442C237.127 32.106 237.283 31.782 237.283 31.47C237.283 31.134 237.157 30.846 236.905 30.606C236.653 30.366 236.347 30.246 235.987 30.246ZM235.447 40.182C236.323 40.182 237.157 39.84 237.949 39.156L235.231 36.69L234.385 35.916C233.533 36.552 233.107 37.278 233.107 38.094C233.107 38.706 233.323 39.21 233.755 39.606C234.199 39.99 234.763 40.182 235.447 40.182ZM251.543 42.252C249.851 42.252 248.537 41.604 247.601 40.308L248.933 38.868C249.257 39.3 249.653 39.642 250.121 39.894C250.601 40.134 251.081 40.254 251.561 40.254C251.981 40.254 252.323 40.158 252.587 39.966C252.863 39.762 253.001 39.516 253.001 39.228C253.001 38.844 252.755 38.532 252.263 38.292C252.107 38.196 251.711 38.034 251.075 37.806C250.511 37.59 250.097 37.416 249.833 37.284C248.741 36.744 248.195 35.916 248.195 34.8C248.195 33.948 248.519 33.252 249.167 32.712C249.815 32.172 250.673 31.902 251.741 31.902C253.121 31.902 254.237 32.382 255.089 33.342L253.865 34.836C253.229 34.164 252.497 33.828 251.669 33.828C251.309 33.828 251.021 33.918 250.805 34.098C250.589 34.266 250.481 34.482 250.481 34.746C250.481 35.178 250.763 35.496 251.327 35.7C252.755 36.264 253.541 36.588 253.685 36.672C254.789 37.272 255.341 38.1 255.341 39.156C255.341 40.044 254.993 40.782 254.297 41.37C253.601 41.958 252.683 42.252 251.543 42.252ZM264.618 33.468V32.226H266.85V42H264.618V40.794C263.766 41.754 262.704 42.234 261.432 42.234C260.028 42.234 258.87 41.742 257.958 40.758C257.046 39.774 256.59 38.544 256.59 37.068C256.59 35.592 257.046 34.38 257.958 33.432C258.882 32.472 260.04 31.992 261.432 31.992C262.68 31.992 263.742 32.484 264.618 33.468ZM264.672 37.104C264.672 36.276 264.402 35.574 263.862 34.998C263.322 34.422 262.632 34.134 261.792 34.134C260.952 34.134 260.262 34.422 259.722 34.998C259.194 35.586 258.93 36.288 258.93 37.104C258.93 37.932 259.194 38.64 259.722 39.228C260.262 39.804 260.952 40.092 261.792 40.092C262.632 40.092 263.322 39.804 263.862 39.228C264.402 38.652 264.672 37.944 264.672 37.104ZM274.317 30.048C273.717 30.048 273.255 30.204 272.931 30.516C272.607 30.816 272.445 31.254 272.445 31.83V32.226H275.505V34.206H272.445V42H270.105V34.206H268.557V32.226H270.105V31.776C270.105 30.564 270.453 29.622 271.149 28.95C271.857 28.278 272.805 27.942 273.993 27.942C274.893 27.942 275.769 28.164 276.621 28.608L275.883 30.444C275.283 30.18 274.761 30.048 274.317 30.048ZM285.967 36.906C285.967 37.218 285.943 37.566 285.895 37.95H278.443C278.599 38.646 278.929 39.198 279.433 39.606C279.949 40.002 280.615 40.2 281.431 40.2C282.619 40.2 283.693 39.864 284.653 39.192L285.589 40.866C284.377 41.766 282.961 42.216 281.341 42.216C280.453 42.216 279.661 42.072 278.965 41.784C278.281 41.496 277.729 41.112 277.309 40.632C276.889 40.14 276.571 39.6 276.355 39.012C276.151 38.412 276.049 37.776 276.049 37.104C276.049 35.616 276.517 34.398 277.453 33.45C278.401 32.478 279.625 31.992 281.125 31.992C282.529 31.992 283.687 32.436 284.599 33.324C285.511 34.2 285.967 35.394 285.967 36.906ZM281.125 33.954C280.441 33.954 279.859 34.152 279.379 34.548C278.911 34.944 278.599 35.484 278.443 36.168H283.663C283.567 35.484 283.285 34.944 282.817 34.548C282.361 34.152 281.797 33.954 281.125 33.954ZM293.819 39.588L294.557 41.424C293.789 41.964 292.847 42.234 291.731 42.234C289.499 42.234 288.383 40.962 288.383 38.418V34.206H286.763V32.226H288.419V28.77H290.741V32.226H294.017V34.206H290.741V38.328C290.741 39.504 291.215 40.092 292.163 40.092C292.715 40.092 293.267 39.924 293.819 39.588ZM300.139 38.832L302.461 32.226H305.017L301.057 42.63C300.577 43.842 300.019 44.73 299.383 45.294C298.759 45.87 297.991 46.158 297.079 46.158C296.335 46.158 295.735 46.002 295.279 45.69L295.657 43.71C296.113 43.926 296.527 44.034 296.899 44.034C297.691 44.034 298.327 43.506 298.807 42.45L299.041 41.91L294.775 32.226H297.493L300.139 38.832ZM75.832 67.216C74.332 67.216 73.09 66.736 72.106 65.776C71.146 64.816 70.666 63.592 70.666 62.104C70.666 60.616 71.152 59.392 72.124 58.432C73.108 57.472 74.368 56.992 75.904 56.992C76.912 56.992 77.818 57.232 78.622 57.712C79.438 58.18 80.044 58.834 80.44 59.674L78.532 60.7C77.908 59.668 77.044 59.152 75.94 59.152C75.1 59.152 74.398 59.434 73.834 59.998C73.282 60.55 73.006 61.252 73.006 62.104C73.006 62.944 73.276 63.646 73.816 64.21C74.356 64.774 75.04 65.056 75.868 65.056C76.408 65.056 76.918 64.918 77.398 64.642C77.89 64.354 78.256 63.982 78.496 63.526L80.404 64.642C79.972 65.434 79.348 66.064 78.532 66.532C77.728 66.988 76.828 67.216 75.832 67.216ZM84.3561 67H82.0161V53.32H84.3021V58.486C84.5901 58.03 85.0101 57.664 85.5621 57.388C86.1141 57.112 86.7261 56.974 87.3981 56.974C88.4421 56.974 89.3361 57.328 90.0801 58.036C90.8241 58.744 91.1961 59.746 91.1961 61.042V67H88.8561V61.672C88.8561 60.868 88.6641 60.244 88.2801 59.8C87.8961 59.344 87.3741 59.116 86.7141 59.116C86.0181 59.116 85.4481 59.356 85.0041 59.836C84.5721 60.316 84.3561 60.94 84.3561 61.708V67ZM100.965 58.468V57.226H103.197V67H100.965V65.794C100.113 66.754 99.0515 67.234 97.7795 67.234C96.3755 67.234 95.2175 66.742 94.3055 65.758C93.3935 64.774 92.9375 63.544 92.9375 62.068C92.9375 60.592 93.3935 59.38 94.3055 58.432C95.2295 57.472 96.3875 56.992 97.7795 56.992C99.0275 56.992 100.089 57.484 100.965 58.468ZM101.019 62.104C101.019 61.276 100.749 60.574 100.209 59.998C99.6695 59.422 98.9795 59.134 98.1395 59.134C97.2995 59.134 96.6095 59.422 96.0695 59.998C95.5415 60.586 95.2775 61.288 95.2775 62.104C95.2775 62.932 95.5415 63.64 96.0695 64.228C96.6095 64.804 97.2995 65.092 98.1395 65.092C98.9795 65.092 99.6695 64.804 100.209 64.228C100.749 63.652 101.019 62.944 101.019 62.104ZM107.928 67H105.588V57.226H107.838V58.576C108.438 57.508 109.344 56.974 110.556 56.974C110.964 56.974 111.354 57.04 111.726 57.172L111.528 59.422C111.108 59.29 110.73 59.224 110.394 59.224C109.638 59.224 109.038 59.482 108.594 59.998C108.15 60.502 107.928 61.246 107.928 62.23V67ZM120.214 58.396V57.226H122.41V66.028C122.41 67.588 121.912 68.83 120.916 69.754C119.92 70.678 118.624 71.14 117.028 71.14C115.372 71.14 113.89 70.672 112.582 69.736L113.536 67.954C114.628 68.722 115.774 69.106 116.974 69.106C117.958 69.106 118.732 68.842 119.296 68.314C119.86 67.798 120.142 67.114 120.142 66.262V65.686C119.35 66.574 118.312 67.018 117.028 67.018C115.6 67.018 114.43 66.544 113.518 65.596C112.606 64.648 112.15 63.454 112.15 62.014C112.15 60.55 112.624 59.35 113.572 58.414C114.52 57.466 115.702 56.992 117.118 56.992C118.366 56.992 119.398 57.46 120.214 58.396ZM117.37 64.966C118.186 64.966 118.864 64.69 119.404 64.138C119.944 63.574 120.214 62.872 120.214 62.032C120.214 61.192 119.944 60.502 119.404 59.962C118.864 59.41 118.186 59.134 117.37 59.134C116.542 59.134 115.858 59.41 115.318 59.962C114.778 60.502 114.508 61.192 114.508 62.032C114.508 62.872 114.778 63.574 115.318 64.138C115.858 64.69 116.542 64.966 117.37 64.966ZM134.18 61.906C134.18 62.218 134.156 62.566 134.108 62.95H126.656C126.812 63.646 127.142 64.198 127.646 64.606C128.162 65.002 128.828 65.2 129.644 65.2C130.832 65.2 131.906 64.864 132.866 64.192L133.802 65.866C132.59 66.766 131.174 67.216 129.554 67.216C128.666 67.216 127.874 67.072 127.178 66.784C126.494 66.496 125.942 66.112 125.522 65.632C125.102 65.14 124.784 64.6 124.568 64.012C124.364 63.412 124.262 62.776 124.262 62.104C124.262 60.616 124.73 59.398 125.666 58.45C126.614 57.478 127.838 56.992 129.338 56.992C130.742 56.992 131.9 57.436 132.812 58.324C133.724 59.2 134.18 60.394 134.18 61.906ZM129.338 58.954C128.654 58.954 128.072 59.152 127.592 59.548C127.124 59.944 126.812 60.484 126.656 61.168H131.876C131.78 60.484 131.498 59.944 131.03 59.548C130.574 59.152 130.01 58.954 129.338 58.954ZM139.906 62.104C139.906 60.664 140.392 59.452 141.364 58.468C142.36 57.472 143.614 56.974 145.126 56.974C146.65 56.974 147.898 57.472 148.87 58.468C149.854 59.452 150.346 60.664 150.346 62.104C150.346 63.568 149.854 64.792 148.87 65.776C147.898 66.76 146.65 67.252 145.126 67.252C143.602 67.252 142.348 66.76 141.364 65.776C140.392 64.792 139.906 63.568 139.906 62.104ZM147.988 62.104C147.988 61.276 147.712 60.58 147.16 60.016C146.596 59.44 145.918 59.152 145.126 59.152C144.334 59.152 143.656 59.44 143.092 60.016C142.54 60.58 142.264 61.276 142.264 62.104C142.264 62.944 142.54 63.646 143.092 64.21C143.656 64.786 144.334 65.074 145.126 65.074C145.918 65.074 146.596 64.786 147.16 64.21C147.712 63.646 147.988 62.944 147.988 62.104ZM157.053 55.048C156.453 55.048 155.991 55.204 155.667 55.516C155.343 55.816 155.181 56.254 155.181 56.83V57.226H158.241V59.206H155.181V67H152.841V59.206H151.293V57.226H152.841V56.776C152.841 55.564 153.189 54.622 153.885 53.95C154.593 53.278 155.541 52.942 156.729 52.942C157.629 52.942 158.505 53.164 159.357 53.608L158.619 55.444C158.019 55.18 157.497 55.048 157.053 55.048ZM166.783 67L163.543 61.348V60.016H164.623C165.259 60.016 165.793 59.878 166.225 59.602C166.657 59.314 166.933 58.918 167.053 58.414H163.543V57.082H167.035C166.927 56.626 166.705 56.248 166.369 55.948C166.033 55.636 165.565 55.48 164.965 55.48H163.543V54.148H171.661V55.48H168.835C169.255 55.936 169.519 56.47 169.627 57.082H171.661V58.414H169.663C169.543 59.302 169.201 59.998 168.637 60.502C168.073 60.994 167.347 61.33 166.459 61.51L169.987 67H166.783ZM182.539 53.464C184.147 53.464 185.377 54.058 186.229 55.246C187.081 56.446 187.507 58 187.507 59.908C187.507 60.892 187.393 61.816 187.165 62.68C186.949 63.532 186.619 64.306 186.175 65.002C185.731 65.686 185.143 66.226 184.411 66.622C183.679 67.018 182.839 67.216 181.891 67.216C180.463 67.216 179.257 66.832 178.273 66.064L179.191 64.21C180.007 64.774 180.865 65.056 181.765 65.056C182.809 65.056 183.613 64.666 184.177 63.886C184.753 63.106 185.089 62.092 185.185 60.844C184.861 61.276 184.423 61.618 183.871 61.87C183.319 62.11 182.719 62.23 182.071 62.23C180.847 62.23 179.833 61.828 179.029 61.024C178.237 60.208 177.841 59.188 177.841 57.964C177.841 56.656 178.279 55.582 179.155 54.742C180.043 53.89 181.171 53.464 182.539 53.464ZM184.771 57.892C184.771 57.232 184.549 56.68 184.105 56.236C183.673 55.792 183.139 55.57 182.503 55.57C181.855 55.57 181.309 55.792 180.865 56.236C180.433 56.668 180.217 57.226 180.217 57.91C180.217 58.558 180.433 59.098 180.865 59.53C181.297 59.95 181.837 60.16 182.485 60.16C183.133 60.16 183.673 59.944 184.105 59.512C184.549 59.08 184.771 58.54 184.771 57.892ZM193.772 53.464C195.38 53.464 196.61 54.058 197.462 55.246C198.314 56.446 198.74 58 198.74 59.908C198.74 60.892 198.626 61.816 198.398 62.68C198.182 63.532 197.852 64.306 197.408 65.002C196.964 65.686 196.376 66.226 195.644 66.622C194.912 67.018 194.072 67.216 193.124 67.216C191.696 67.216 190.49 66.832 189.506 66.064L190.424 64.21C191.24 64.774 192.098 65.056 192.998 65.056C194.042 65.056 194.846 64.666 195.41 63.886C195.986 63.106 196.322 62.092 196.418 60.844C196.094 61.276 195.656 61.618 195.104 61.87C194.552 62.11 193.952 62.23 193.304 62.23C192.08 62.23 191.066 61.828 190.262 61.024C189.47 60.208 189.074 59.188 189.074 57.964C189.074 56.656 189.512 55.582 190.388 54.742C191.276 53.89 192.404 53.464 193.772 53.464ZM196.004 57.892C196.004 57.232 195.782 56.68 195.338 56.236C194.906 55.792 194.372 55.57 193.736 55.57C193.088 55.57 192.542 55.792 192.098 56.236C191.666 56.668 191.45 57.226 191.45 57.91C191.45 58.558 191.666 59.098 192.098 59.53C192.53 59.95 193.07 60.16 193.718 60.16C194.366 60.16 194.906 59.944 195.338 59.512C195.782 59.08 196.004 58.54 196.004 57.892ZM209.454 66.982H207.42L204.09 57.226H206.538L208.59 63.85L210.912 57.226H212.55L214.926 63.85L216.924 57.226H219.372L216.096 66.982H214.062L211.74 60.592L209.454 66.982ZM221.985 56.056C221.553 56.056 221.193 55.918 220.905 55.642C220.617 55.366 220.473 55.012 220.473 54.58C220.473 54.16 220.617 53.812 220.905 53.536C221.205 53.248 221.565 53.104 221.985 53.104C222.405 53.104 222.753 53.248 223.029 53.536C223.317 53.812 223.461 54.16 223.461 54.58C223.461 55.012 223.317 55.366 223.029 55.642C222.753 55.918 222.405 56.056 221.985 56.056ZM223.137 57.226V67H220.779V57.226H223.137ZM227.811 53.32V67H225.471V53.32H227.811ZM232.54 53.32V67H230.2V53.32H232.54ZM244.83 56.992C246.222 56.992 247.374 57.484 248.286 58.468C249.222 59.452 249.69 60.67 249.69 62.122C249.69 63.562 249.222 64.78 248.286 65.776C247.362 66.748 246.204 67.234 244.812 67.234C243.552 67.234 242.508 66.724 241.68 65.704V67H239.375V53.32H241.716V58.486C242.544 57.49 243.582 56.992 244.83 56.992ZM246.504 64.228C247.032 63.64 247.296 62.932 247.296 62.104C247.296 61.276 247.032 60.58 246.504 60.016C245.976 59.44 245.298 59.152 244.47 59.152C243.618 59.152 242.934 59.44 242.418 60.016C241.89 60.58 241.626 61.276 241.626 62.104C241.626 62.932 241.89 63.64 242.418 64.228C242.946 64.792 243.63 65.074 244.47 65.074C245.298 65.074 245.976 64.792 246.504 64.228ZM260.936 61.906C260.936 62.218 260.912 62.566 260.864 62.95H253.412C253.568 63.646 253.898 64.198 254.402 64.606C254.918 65.002 255.584 65.2 256.4 65.2C257.588 65.2 258.662 64.864 259.622 64.192L260.558 65.866C259.346 66.766 257.93 67.216 256.31 67.216C255.422 67.216 254.63 67.072 253.934 66.784C253.25 66.496 252.698 66.112 252.278 65.632C251.858 65.14 251.54 64.6 251.324 64.012C251.12 63.412 251.018 62.776 251.018 62.104C251.018 60.616 251.486 59.398 252.422 58.45C253.37 57.478 254.594 56.992 256.094 56.992C257.498 56.992 258.656 57.436 259.568 58.324C260.48 59.2 260.936 60.394 260.936 61.906ZM256.094 58.954C255.41 58.954 254.828 59.152 254.348 59.548C253.88 59.944 253.568 60.484 253.412 61.168H258.632C258.536 60.484 258.254 59.944 257.786 59.548C257.33 59.152 256.766 58.954 256.094 58.954ZM274.708 58.468V57.226H276.94V67H274.708V65.794C273.856 66.754 272.794 67.234 271.522 67.234C270.118 67.234 268.96 66.742 268.048 65.758C267.136 64.774 266.68 63.544 266.68 62.068C266.68 60.592 267.136 59.38 268.048 58.432C268.972 57.472 270.13 56.992 271.522 56.992C272.77 56.992 273.832 57.484 274.708 58.468ZM274.762 62.104C274.762 61.276 274.492 60.574 273.952 59.998C273.412 59.422 272.722 59.134 271.882 59.134C271.042 59.134 270.352 59.422 269.812 59.998C269.284 60.586 269.02 61.288 269.02 62.104C269.02 62.932 269.284 63.64 269.812 64.228C270.352 64.804 271.042 65.092 271.882 65.092C272.722 65.092 273.412 64.804 273.952 64.228C274.492 63.652 274.762 62.944 274.762 62.104ZM286.729 58.468V53.32H289.069V67H286.783V65.722C285.967 66.73 284.929 67.234 283.669 67.234C282.265 67.234 281.107 66.748 280.195 65.776C279.271 64.78 278.809 63.556 278.809 62.104C278.809 60.676 279.271 59.464 280.195 58.468C281.131 57.484 282.283 56.992 283.651 56.992C284.899 56.992 285.925 57.484 286.729 58.468ZM283.993 65.092C284.845 65.092 285.535 64.804 286.063 64.228C286.591 63.64 286.855 62.932 286.855 62.104C286.855 61.276 286.585 60.574 286.045 59.998C285.529 59.422 284.845 59.134 283.993 59.134C283.141 59.134 282.457 59.422 281.941 59.998C281.413 60.586 281.149 61.288 281.149 62.104C281.149 62.932 281.413 63.64 281.941 64.228C282.457 64.804 283.141 65.092 283.993 65.092ZM298.857 58.468V53.32H301.197V67H298.911V65.722C298.095 66.73 297.057 67.234 295.797 67.234C294.393 67.234 293.235 66.748 292.323 65.776C291.399 64.78 290.937 63.556 290.937 62.104C290.937 60.676 291.399 59.464 292.323 58.468C293.259 57.484 294.411 56.992 295.779 56.992C297.027 56.992 298.053 57.484 298.857 58.468ZM296.121 65.092C296.973 65.092 297.663 64.804 298.191 64.228C298.719 63.64 298.983 62.932 298.983 62.104C298.983 61.276 298.713 60.574 298.173 59.998C297.657 59.422 296.973 59.134 296.121 59.134C295.269 59.134 294.585 59.422 294.069 59.998C293.541 60.586 293.277 61.288 293.277 62.104C293.277 62.932 293.541 63.64 294.069 64.228C294.585 64.804 295.269 65.092 296.121 65.092ZM312.984 61.906C312.984 62.218 312.96 62.566 312.912 62.95H305.46C305.616 63.646 305.946 64.198 306.45 64.606C306.966 65.002 307.632 65.2 308.448 65.2C309.636 65.2 310.71 64.864 311.67 64.192L312.606 65.866C311.394 66.766 309.978 67.216 308.358 67.216C307.47 67.216 306.678 67.072 305.982 66.784C305.298 66.496 304.746 66.112 304.326 65.632C303.906 65.14 303.588 64.6 303.372 64.012C303.168 63.412 303.066 62.776 303.066 62.104C303.066 60.616 303.534 59.398 304.47 58.45C305.418 57.478 306.642 56.992 308.142 56.992C309.546 56.992 310.704 57.436 311.616 58.324C312.528 59.2 312.984 60.394 312.984 61.906ZM308.142 58.954C307.458 58.954 306.876 59.152 306.396 59.548C305.928 59.944 305.616 60.484 305.46 61.168H310.68C310.584 60.484 310.302 59.944 309.834 59.548C309.378 59.152 308.814 58.954 308.142 58.954ZM322.201 58.468V53.32H324.541V67H322.255V65.722C321.439 66.73 320.401 67.234 319.141 67.234C317.737 67.234 316.579 66.748 315.667 65.776C314.743 64.78 314.281 63.556 314.281 62.104C314.281 60.676 314.743 59.464 315.667 58.468C316.603 57.484 317.755 56.992 319.123 56.992C320.371 56.992 321.397 57.484 322.201 58.468ZM319.465 65.092C320.317 65.092 321.007 64.804 321.535 64.228C322.063 63.64 322.327 62.932 322.327 62.104C322.327 61.276 322.057 60.574 321.517 59.998C321.001 59.422 320.317 59.134 319.465 59.134C318.613 59.134 317.929 59.422 317.413 59.998C316.885 60.586 316.621 61.288 316.621 62.104C316.621 62.932 316.885 63.64 317.413 64.228C317.929 64.804 318.613 65.092 319.465 65.092ZM338.885 58.468V57.226H341.117V67H338.885V65.794C338.033 66.754 336.971 67.234 335.699 67.234C334.295 67.234 333.137 66.742 332.225 65.758C331.313 64.774 330.857 63.544 330.857 62.068C330.857 60.592 331.313 59.38 332.225 58.432C333.149 57.472 334.307 56.992 335.699 56.992C336.947 56.992 338.009 57.484 338.885 58.468ZM338.939 62.104C338.939 61.276 338.669 60.574 338.129 59.998C337.589 59.422 336.899 59.134 336.059 59.134C335.219 59.134 334.529 59.422 333.989 59.998C333.461 60.586 333.197 61.288 333.197 62.104C333.197 62.932 333.461 63.64 333.989 64.228C334.529 64.804 335.219 65.092 336.059 65.092C336.899 65.092 337.589 64.804 338.129 64.228C338.669 63.652 338.939 62.944 338.939 62.104ZM349.682 64.588L350.42 66.424C349.652 66.964 348.71 67.234 347.594 67.234C345.362 67.234 344.246 65.962 344.246 63.418V59.206H342.626V57.226H344.282V53.77H346.604V57.226H349.88V59.206H346.604V63.328C346.604 64.504 347.078 65.092 348.026 65.092C348.578 65.092 349.13 64.924 349.682 64.588ZM75.832 92.216C74.332 92.216 73.09 91.736 72.106 90.776C71.146 89.816 70.666 88.592 70.666 87.104C70.666 85.616 71.152 84.392 72.124 83.432C73.108 82.472 74.368 81.992 75.904 81.992C76.912 81.992 77.818 82.232 78.622 82.712C79.438 83.18 80.044 83.834 80.44 84.674L78.532 85.7C77.908 84.668 77.044 84.152 75.94 84.152C75.1 84.152 74.398 84.434 73.834 84.998C73.282 85.55 73.006 86.252 73.006 87.104C73.006 87.944 73.276 88.646 73.816 89.21C74.356 89.774 75.04 90.056 75.868 90.056C76.408 90.056 76.918 89.918 77.398 89.642C77.89 89.354 78.256 88.982 78.496 88.526L80.404 89.642C79.972 90.434 79.348 91.064 78.532 91.532C77.728 91.988 76.828 92.216 75.832 92.216ZM84.3561 92H82.0161V78.32H84.3021V83.486C84.5901 83.03 85.0101 82.664 85.5621 82.388C86.1141 82.112 86.7261 81.974 87.3981 81.974C88.4421 81.974 89.3361 82.328 90.0801 83.036C90.8241 83.744 91.1961 84.746 91.1961 86.042V92H88.8561V86.672C88.8561 85.868 88.6641 85.244 88.2801 84.8C87.8961 84.344 87.3741 84.116 86.7141 84.116C86.0181 84.116 85.4481 84.356 85.0041 84.836C84.5721 85.316 84.3561 85.94 84.3561 86.708V92ZM102.855 86.906C102.855 87.218 102.831 87.566 102.783 87.95H95.3315C95.4875 88.646 95.8175 89.198 96.3215 89.606C96.8375 90.002 97.5035 90.2 98.3195 90.2C99.5075 90.2 100.581 89.864 101.541 89.192L102.477 90.866C101.265 91.766 99.8495 92.216 98.2295 92.216C97.3415 92.216 96.5495 92.072 95.8535 91.784C95.1695 91.496 94.6175 91.112 94.1975 90.632C93.7775 90.14 93.4595 89.6 93.2435 89.012C93.0395 88.412 92.9375 87.776 92.9375 87.104C92.9375 85.616 93.4055 84.398 94.3415 83.45C95.2895 82.478 96.5135 81.992 98.0135 81.992C99.4175 81.992 100.575 82.436 101.487 83.324C102.399 84.2 102.855 85.394 102.855 86.906ZM98.0135 83.954C97.3295 83.954 96.7475 84.152 96.2675 84.548C95.7995 84.944 95.4875 85.484 95.3315 86.168H100.551C100.455 85.484 100.173 84.944 99.7055 84.548C99.2495 84.152 98.6855 83.954 98.0135 83.954ZM109.318 92.216C107.818 92.216 106.576 91.736 105.592 90.776C104.632 89.816 104.152 88.592 104.152 87.104C104.152 85.616 104.638 84.392 105.61 83.432C106.594 82.472 107.854 81.992 109.39 81.992C110.398 81.992 111.304 82.232 112.108 82.712C112.924 83.18 113.53 83.834 113.926 84.674L112.018 85.7C111.394 84.668 110.53 84.152 109.426 84.152C108.586 84.152 107.884 84.434 107.32 84.998C106.768 85.55 106.492 86.252 106.492 87.104C106.492 87.944 106.762 88.646 107.302 89.21C107.842 89.774 108.526 90.056 109.354 90.056C109.894 90.056 110.404 89.918 110.884 89.642C111.376 89.354 111.742 88.982 111.982 88.526L113.89 89.642C113.458 90.434 112.834 91.064 112.018 91.532C111.214 91.988 110.314 92.216 109.318 92.216ZM124.826 92H121.91L118.562 87.734L117.842 88.382V92H115.502V78.32H117.842V85.718L121.604 82.226H124.592L120.182 86.258L124.826 92ZM124.648 87.104C124.648 85.664 125.134 84.452 126.106 83.468C127.102 82.472 128.356 81.974 129.868 81.974C131.392 81.974 132.64 82.472 133.612 83.468C134.596 84.452 135.088 85.664 135.088 87.104C135.088 88.568 134.596 89.792 133.612 90.776C132.64 91.76 131.392 92.252 129.868 92.252C128.344 92.252 127.09 91.76 126.106 90.776C125.134 89.792 124.648 88.568 124.648 87.104ZM132.73 87.104C132.73 86.276 132.454 85.58 131.902 85.016C131.338 84.44 130.66 84.152 129.868 84.152C129.076 84.152 128.398 84.44 127.834 85.016C127.282 85.58 127.006 86.276 127.006 87.104C127.006 87.944 127.282 88.646 127.834 89.21C128.398 89.786 129.076 90.074 129.868 90.074C130.66 90.074 131.338 89.786 131.902 89.21C132.454 88.646 132.73 87.944 132.73 87.104ZM141.214 92.234C139.846 92.234 138.766 91.856 137.974 91.1C137.194 90.332 136.804 89.27 136.804 87.914V82.226H139.162V87.914C139.162 88.574 139.342 89.102 139.702 89.498C140.074 89.894 140.578 90.092 141.214 90.092C141.862 90.092 142.366 89.894 142.726 89.498C143.098 89.102 143.284 88.574 143.284 87.914V82.226H145.642V87.914C145.642 89.27 145.246 90.332 144.454 91.1C143.674 91.856 142.594 92.234 141.214 92.234ZM154.073 89.588L154.811 91.424C154.043 91.964 153.101 92.234 151.985 92.234C149.753 92.234 148.637 90.962 148.637 88.418V84.206H147.017V82.226H148.673V78.77H150.995V82.226H154.271V84.206H150.995V88.328C150.995 89.504 151.469 90.092 152.417 90.092C152.969 90.092 153.521 89.924 154.073 89.588Z" fill="white"/>
</svg>
